<?xml version="1.0" ?><svg enable-background="new 0 0 32 32" version="1.1" viewBox="0 0 32 32" xml:space="preserve" xmlns="http://www.w3.org/2000/svg" xmlns:xlink="http://www.w3.org/1999/xlink"><g id="Outline_Color_copy_2"><g><path d="M28,1c1.654,0,3,1.346,3,3v24c0,1.654-1.346,3-3,3H4c-1.654,0-3-1.346-3-3V4c0-1.654,1.346-3,3-3H28 M28,0H4    C1.8,0,0,1.8,0,4v24c0,2.2,1.8,4,4,4h24c2.2,0,4-1.8,4-4V4C32,1.8,30.2,0,28,0L28,0z"/></g><path d="M14.192,15.573c0,0,1.773-0.135,1.773-2.256c0-2.12-1.203-3.165-3.041-3.165l-6.297-0.01v11.715h6.443   c0,0,3.222,0.102,3.222-3.514C16.293,18.343,16.53,15.573,14.192,15.573z M8.971,11.9h3.222c0,0,1.102,0.018,1.102,1.447   c0,1.481-1.102,1.481-1.102,1.481H8.971V11.9z M12.486,20.1H8.971v-3.514h3.514c0,0,1.757,0.018,1.757,1.757   S12.739,20.1,12.486,20.1z" fill="#0BA4E0"/><path d="M21.272,13.071c-4.401,0-4.393,4.393-4.393,4.393s-0.293,4.393,4.393,4.393c0,0,4.1,0,4.1-3.514h-2.343   c0,0,0,1.757-1.757,1.757c0,0-1.757,0-1.757-2.343c0,0,4.686,0,5.857,0C25.372,16.586,25.372,13.071,21.272,13.071z M19.514,16.586   c0,0-0.039-1.757,1.757-1.757c1.795,0,1.757,1.757,1.757,1.757H19.514z" fill="#0BA4E0"/><rect fill="#0BA4E0" height="1.171" width="4.686" x="18.929" y="11.314"/></g></svg>